HIERARCHY
ROOT Hips
{
	OFFSET	0.00	0.00	0.00
	CHANNELS 6 Xposition Yposition Zposition Zrotation Xrotation Yrotation
	JOINT LeftUpLeg
	{
		OFFSET	 0.126116	-0.014019	-0.065224
		CHANNELS 3 Zrotation Xrotation Yrotation
		JOINT LeftLeg
		{
			OFFSET	 0.000000	 0.000000	 0.569914
			CHANNELS 3 Zrotation Xrotation Yrotation
			JOINT LeftFoot
			{
				OFFSET	 0.000000	 0.000000	 0.544423
				CHANNELS 3 Zrotation Xrotation Yrotation
				JOINT LeftToeBase
				{
					OFFSET	 0.000000	 0.000000	 0.207117
					CHANNELS 3 Zrotation Xrotation Yrotation
					End Site
					{
						OFFSET	 0.000000	 0.000000	 0.207117
					}
				}
			}
		}
	}
	JOINT RightUpLeg
	{
		OFFSET	-0.124023	-0.008373	-0.065224
		CHANNELS 3 Zrotation Xrotation Yrotation
		JOINT RightLeg
		{
			OFFSET	 0.000000	 0.000000	 0.570047
			CHANNELS 3 Zrotation Xrotation Yrotation
			JOINT RightFoot
			{
				OFFSET	 0.000000	 0.000000	 0.544354
				CHANNELS 3 Zrotation Xrotation Yrotation
				JOINT RightToeBase
				{
					OFFSET	 0.000000	 0.000000	 0.207540
					CHANNELS 3 Zrotation Xrotation Yrotation
					End Site
					{
						OFFSET	 0.000000	 0.000000	 0.207540
					}
				}
			}
		}
	}
	JOINT Spine
	{
		OFFSET	 0.000184	-0.007763	 0.117403
		CHANNELS 3 Zrotation Xrotation Yrotation
		JOINT Spine1
		{
			OFFSET	 0.000000	 0.000000	 0.137269
			CHANNELS 3 Zrotation Xrotation Yrotation
			JOINT Spine2
			{
				OFFSET	 0.000000	 0.000000	 0.156879
				CHANNELS 3 Zrotation Xrotation Yrotation
				JOINT LeftShoulder
				{
					OFFSET	 0.080501	-0.002496	 0.160144
					CHANNELS 3 Zrotation Xrotation Yrotation
					JOINT LeftArm
					{
						OFFSET	 0.000000	 0.000000	 0.164363
						CHANNELS 3 Zrotation Xrotation Yrotation
						JOINT LeftForeArm
						{
							OFFSET	 0.000000	 0.000000	 0.364576
							CHANNELS 3 Zrotation Xrotation Yrotation
							JOINT LeftHand
							{
								OFFSET	 0.000000	 0.000000	 0.360812
								CHANNELS 3 Zrotation Xrotation Yrotation
								JOINT LeftHandIndex1
								{
									OFFSET	 0.000000	 0.000000	 0.086006
									CHANNELS 3 Zrotation Xrotation Yrotation
									JOINT LeftHandIndex2
									{
										OFFSET	 0.000000	 0.000000	 0.047236
										CHANNELS 3 Zrotation Xrotation Yrotation
										JOINT LeftHandIndex3
										{
											OFFSET	-0.004284	-0.000551	 0.038166
											CHANNELS 3 Zrotation Xrotation Yrotation
											End Site
											{
												OFFSET	-0.004284	-0.000551	 0.038166
											}
										}
									}
								}
							}
						}
					}
				}
				JOINT Neck
				{
					OFFSET	 0.000000	 0.000000	 0.176489
					CHANNELS 3 Zrotation Xrotation Yrotation
					JOINT Head
					{
						OFFSET	 0.000000	-0.001747	 0.077940
						CHANNELS 3 Zrotation Xrotation Yrotation
						End Site
						{
							OFFSET	 0.000000	-0.001747	 0.077940
						}
					}
				}
				JOINT RightShoulder
				{
					OFFSET	-0.080363	 0.000306	 0.159706
					CHANNELS 3 Zrotation Xrotation Yrotation
					JOINT RightArm
					{
						OFFSET	 0.000000	 0.000000	 0.164196
						CHANNELS 3 Zrotation Xrotation Yrotation
						JOINT RightForeArm
						{
							OFFSET	 0.000000	 0.000000	 0.365611
							CHANNELS 3 Zrotation Xrotation Yrotation
							JOINT RightHand
							{
								OFFSET	 0.000000	 0.000000	 0.360648
								CHANNELS 3 Zrotation Xrotation Yrotation
								JOINT RightHandIndex1
								{
									OFFSET	 0.000000	 0.000000	 0.069977
									CHANNELS 3 Zrotation Xrotation Yrotation
									JOINT RightHandIndex2
									{
										OFFSET	 0.000000	 0.000000	 0.052305
										CHANNELS 3 Zrotation Xrotation Yrotation
										JOINT RightHandIndex3
										{
											OFFSET	 0.009002	-0.000782	 0.042196
											CHANNELS 3 Zrotation Xrotation Yrotation
											End Site
											{
												OFFSET	 0.009002	-0.000782	 0.042196
											}
										}
									}
								}
							}
						}
					}
				}
			}
		}
	}
}
MOTION
Frames:    10
Frame Time: 0.03333334
-0.090001	 6.730258	 1.249385	-99.562270	 1.360348	 0.476355	-33.683720	-7.963291	-177.545900	 17.189360	-40.748340	 5.334806	-100.078000	 75.644770	 77.266710	-2.173443	 48.241340	-0.523666	 21.449120	-7.160827	-174.480500	-10.185570	-41.556760	-1.390125	 60.496260	 77.728900	-44.357260	 1.968226	 56.113400	 0.840679	 8.766657	 7.315269	 2.097212	-6.412523	 2.563972	-6.491261	-0.752584	-17.621410	 4.470009	-91.229260	 83.958310	 178.242600	 59.773990	 55.628960	-77.554260	-3.333597	-3.216377	-21.730580	 28.786590	 0.121547	-12.728740	-11.889970	 9.676146	-26.729130	-5.213937	-0.202400	 3.566957	-1.378229	 35.397820	-2.634230	-2.399360	 4.225145	 3.782296	-6.668426	-11.724110	-16.646330	 87.727090	 87.418960	-176.799000	-11.516470	 70.659000	 11.211880	 0.856983	 0.515986	 4.639254	-22.537310	-8.698997	 9.215079	-0.775430	 25.401830	-61.702870	 5.070519	-0.690904	-9.399550	-2.350882	 35.473990	 5.254307
-0.089584	 6.753263	 1.250256	-94.828120	 1.925388	 1.196829	-36.159060	-8.080472	-179.042400	 18.119740	-41.434540	 6.031655	-98.441090	 74.608550	 75.613330	-2.204309	 46.576770	-0.468463	 17.507280	-6.871278	-175.561200	-8.078259	-40.972290	 0.007983	 60.189560	 79.413940	-44.797490	 1.977348	 55.836570	 0.827710	 7.766679	 6.584631	 1.675232	-6.383914	 3.948507	-6.499641	 1.108515	-19.251660	 4.813250	-91.229300	 83.958310	 178.242600	 57.409780	 57.484180	-77.592410	-2.536950	-1.453847	-13.989330	 28.836790	-1.544389	-11.666910	-11.522430	 9.720696	-25.468770	-5.213937	-0.202400	 3.566957	-1.378229	 35.397820	-2.634230	-0.290979	 4.634510	 0.973494	-4.525109	-13.850020	-12.397950	 87.726820	 87.418890	-176.798800	-10.043330	 70.093010	 10.231660	 2.293754	 0.619364	 4.906864	-21.867780	-8.991810	 9.178904	-1.468430	 24.456250	-62.161600	 5.070519	-0.690904	-9.399550	-2.350882	 35.473990	 5.254307
-0.089146	 6.773897	 1.251362	-90.641010	 2.605084	 1.722555	-38.049930	-8.575092	 179.604800	 19.311250	-42.219310	 6.937229	-96.823320	 73.822370	 73.809330	-2.223142	 45.464550	-0.433206	 13.805720	-6.187178	-176.163900	-6.242443	-39.365670	 1.172334	 59.716330	 80.760840	-44.989750	 2.091543	 51.837410	 0.657316	 6.709846	 6.232712	 1.471581	-6.349537	 4.801046	-6.963774	 3.383865	-21.137930	 5.707410	-91.229200	 83.958370	 178.242500	 52.717830	 59.666180	-75.546330	-2.371722	 0.735517	-5.158184	 27.775050	-3.179665	-10.250410	-11.060500	 9.582339	-23.716250	-5.213937	-0.202400	 3.566957	-1.378229	 35.397820	-2.634230	 1.979325	 5.930037	-1.695471	-2.264000	-16.844440	-8.400705	 87.727040	 87.418890	-176.799000	-8.902153	 69.442990	 8.922023	 2.932753	 0.713614	 5.153089	-22.043550	-9.214254	 9.183724	-1.754693	 24.129350	-62.606250	 5.070519	-0.690904	-9.399550	-2.350882	 35.473990	 5.254307
-0.088821	 6.802040	 1.252966	-85.310300	 3.436490	 1.884670	-39.218350	-9.767407	 178.318800	 20.032000	-43.482240	 7.607400	-92.357570	 73.456310	 69.700640	-2.278750	 41.609590	-0.319656	 9.073986	-4.591477	-176.628000	-3.692428	-36.516690	 2.620379	 55.470150	 82.314740	-41.935090	 2.043292	 53.661530	 0.731363	 5.302813	 5.732896	 1.400331	-6.042941	 5.736746	-7.005054	 7.095468	-23.199440	 7.082858	-91.229290	 83.958270	 178.242600	 41.612010	 64.745510	-62.397580	-2.469626	 0.876616	-5.505983	 23.645790	-6.504888	-6.930652	-11.065970	 8.546396	-22.944430	-5.213937	-0.202400	 3.566957	-1.378229	 35.397820	-2.634230	 5.913486	 7.656269	-6.416911	 2.021254	-20.515920	-0.954143	 87.726880	 87.418820	-176.798800	-7.881927	 68.170330	 7.547044	 4.156646	 0.862505	 5.511763	-22.129820	-9.501399	 9.239193	-0.468518	 26.036630	-62.557800	 5.070519	-0.690904	-9.399550	-2.350882	 35.473990	 5.254307
-0.088974	 6.809707	 1.253288	-84.086270	 3.402828	 1.977239	-38.987650	-9.866877	 178.080900	 20.110180	-43.850930	 7.713457	-91.827970	 73.436090	 69.265370	-2.274825	 41.917060	-0.328268	 7.876400	-3.902909	-176.834200	-3.028597	-35.665670	 2.956342	 56.073250	 82.835050	-42.883160	 2.086237	 52.049050	 0.665631	 5.023222	 5.737886	 1.389112	-5.846483	 6.118186	-7.088822	 8.018510	-23.522850	 7.528892	-91.229240	 83.958340	 178.242600	 37.580240	 65.386150	-58.162140	-3.262058	 0.923735	-5.599128	 22.005630	-7.234176	-6.188819	-10.973460	 8.611024	-22.671820	-5.213937	-0.202400	 3.566957	-1.378229	 35.397820	-2.634230	 6.826895	 8.169170	-7.224707	 3.079928	-21.466480	 0.788831	 87.726720	 87.419040	-176.798700	-7.976861	 67.751460	 7.785800	 4.900811	 0.908486	 5.608906	-21.834660	-9.543559	 9.297924	-0.836257	 25.551940	-62.843420	 5.070519	-0.690904	-9.399550	-2.350882	 35.473990	 5.254307
-0.088155	 6.826660	 1.253895	-81.434530	 3.454147	 2.185986	-38.818420	-10.202710	 177.468600	 20.444470	-44.681250	 8.067210	-90.274510	 73.232150	 67.916240	-2.306749	 39.214740	-0.254775	 5.235568	-2.718804	-177.282400	-1.621768	-33.935170	 3.621722	 56.184400	 83.893940	-43.797900	 2.156240	 48.981860	 0.551665	 4.222180	 5.697249	 1.288048	-5.569631	 7.107770	-7.209073	 9.934104	-24.251380	 8.405748	-91.229230	 83.958340	 178.242500	 27.781720	 66.060040	-48.199220	-5.113486	 1.027337	-5.803692	 18.442300	-8.918669	-4.737242	-10.757080	 8.777689	-22.040270	-5.213937	-0.202400	 3.566957	-1.378229	 35.397820	-2.634230	 8.765323	 9.126842	-8.951407	 5.399724	-23.168780	 4.560801	 87.726970	 87.419040	-176.798900	-7.589035	 67.084800	 7.343327	 6.234945	 0.631276	 7.535830	-21.228290	-9.726987	 9.312554	-1.394943	 24.840360	-63.363110	 5.070519	-0.690904	-9.399550	-2.350882	 35.473990	 5.254307
-0.084543	 6.846517	 1.254715	-78.429920	 4.209551	 2.490577	-40.496700	-11.099360	 176.457300	 21.790600	-45.704690	 9.194166	-86.213420	 72.241960	 64.027280	-2.408441	 15.963880	 0.253185	 2.099981	-2.423290	-177.928300	-0.054094	-32.159540	 4.297710	 48.190210	 84.971180	-36.737950	 2.174169	 48.085650	 0.520729	 3.147902	 5.333749	 0.748027	-5.348200	 7.780214	-6.704349	 11.383450	-24.843440	 8.536589	-91.229100	 83.958370	 178.242400	 16.377270	 65.311470	-37.003220	-8.024838	 1.153518	-6.034687	 14.229790	-10.837770	-3.555421	-10.415560	 9.119651	-21.083500	-5.213937	-0.202400	 3.566957	-1.378229	 35.397820	-2.634230	 10.587330	 9.656243	-10.471140	 7.604131	-23.898060	 7.871818	 87.726840	 87.418890	-176.798800	-3.575096	 67.022510	 1.820624	 6.269732	-0.760605	 14.598650	-20.782800	-10.563010	 8.652498	-0.597091	 25.999410	-63.320230	 5.070519	-0.690904	-9.399550	-2.350882	 35.473990	 5.254307
-0.080236	 6.864825	 1.255096	-75.389800	 4.848641	 2.287439	-38.300010	-12.820160	 175.251700	 20.753930	-46.826040	 8.592730	-86.577810	 72.983310	 65.047650	-2.397097	 25.437340	 0.063944	 0.436868	-2.117882	-178.397200	 0.731287	-30.800510	 4.543615	 60.457410	 86.922350	-49.245950	 2.275527	 41.709810	 0.324425	 1.724986	 5.249088	 0.757418	-5.396290	 8.286225	-6.901340	 13.286510	-25.097970	 9.452924	-91.229290	 83.958340	 178.242600	 5.510267	 63.446900	-26.756740	-10.119340	 1.275176	-6.253700	 10.846890	-12.973700	-2.536647	-10.102620	 8.993048	-19.889240	-5.213937	-0.202400	 3.566957	-1.378229	 35.397820	-2.634230	 12.168140	 10.578530	-11.513430	 9.592339	-24.692110	 11.115380	 87.726840	 87.418890	-176.798800	-2.312091	 66.528240	 0.520818	 7.852575	-1.198456	 19.002230	-19.762570	-10.965170	 8.503531	-0.485478	 26.275260	-63.908820	 5.070519	-0.690904	-9.399550	-2.350882	 35.473990	 5.254307
-0.076091	 6.884663	 1.254757	-72.140480	 5.323173	 2.362321	-35.857400	-14.510870	 174.060300	 19.764750	-48.071420	 8.014675	-87.502350	 73.874930	 66.512830	-2.370648	 31.404770	-0.065165	-1.565562	-1.549695	-179.061100	 1.601754	-29.138590	 4.753956	 86.265820	 88.271160	-75.529400	 2.324097	 37.318030	 0.207691	 0.035838	 5.471577	 0.457713	-5.372444	 8.809147	-7.140122	 15.130890	-25.247270	 10.224660	-91.229260	 83.958310	 178.242600	-3.041447	 60.788760	-18.692100	-11.768260	 1.401353	-6.483335	 8.140280	-15.030480	-1.751125	-10.079110	 8.950702	-19.777900	-5.213937	-0.202400	 3.566957	-1.378229	 35.397820	-2.634230	 13.588900	 11.003930	-12.228090	 11.312790	-24.801620	 13.807830	 87.727080	 87.418960	-176.799100	-0.407311	 65.883900	-1.231903	 9.360283	-1.547635	 24.165230	-18.605270	-11.578980	 8.178872	-0.258845	 26.616020	-63.997100	 5.070519	-0.690904	-9.399550	-2.350882	 35.473990	 5.254307
-0.073071	 6.899242	 1.254047	-69.769540	 5.621714	 2.590701	-34.215400	-15.707220	 173.215600	 19.215150	-49.019880	 7.710279	-88.163420	 74.476960	 67.483910	-2.371978	 31.177030	-0.060034	-3.431175	-1.093559	-179.582900	 2.374207	-27.808830	 4.924827	 103.745100	 88.802860	-93.600910	 2.335717	 36.030510	 0.175600	-1.302286	 5.732200	 0.011416	-5.312255	 9.212740	-7.281043	 16.242400	-25.316770	 10.564960	-91.229340	 83.958370	 178.242700	-7.674502	 58.397310	-14.073740	-12.575170	 1.491866	-6.649571	 6.728887	-16.306290	-1.292879	-10.255830	 8.764008	-20.275850	-5.213937	-0.202400	 3.566957	-1.378229	 35.397820	-2.634230	 14.409980	 11.054780	-12.526090	 12.310220	-24.558670	 15.399020	 87.726880	 87.419040	-176.798800	 1.117527	 65.344640	-2.370368	 10.292870	-1.743118	 28.177970	-17.833260	-12.120860	 7.865470	-0.148454	 26.750620	-63.871370	 5.070519	-0.690904	-9.399550	-2.350882	 35.473990	 5.254307
